# xmcd
#
# Track frame offsets:
#	150
#	14787
#	27012
#	41937
#	54087
#	63010
#	74562
#	87835
#	99312
#	111385
#
# Disc length: 1678
#
# Revision: 11
# Processed by: cddbd v1.5.1PL0 Copyright (c) Steve Scherf et al.
# Submitted via: tcd 2.0b
# Normalized: r9:DSETVAR1,TSWAP
#
DISCID=81068c0a
DTITLE=Various Artist - The Legendary Big Bands
DYEAR=1900
DGENRE=
TTITLE0=Harry James - You Made Me Love You
TTITLE1=Artie Shaw\n - Night Mare
TTITLE2=Benny Goodman - Poor Butterfly
TTITLE3=Glenn Miller - Humouresque
TTITLE4=Harry James\n - Flight Of The Bumblebee
TTITLE5=Benny Goodman\n - Let's Dance
TTITLE6=Harry James\n - By The Sleepy ZLagoon
TTITLE7=Glenn Miller\n - Dippermouth
TTITLE8=Benny Goodman - Down South Camp Meetin'
TTITLE9=Artie Shaw - Just You, Just Mw
EXTD=Various Artist - The Legendary Big Bands
EXTT0=
EXTT1=
EXTT2=
EXTT3=
EXTT4=
EXTT5=
EXTT6=
EXTT7=
EXTT8=
EXTT9=
PLAYORDER=
